<svg xmlns="http://www.w3.org/2000/svg" version="1.1" xmlns:xlink="http://www.w3.org/1999/xlink" xmlns:svgjs="http://svgjs.dev/svgjs" width="1000" height="1125" viewBox="0 0 1000 1125"><g transform="matrix(1,0,0,1,1.7053025658242404e-13,0)"><svg viewBox="0 0 320 360" data-background-color="#fefefe" preserveAspectRatio="xMidYMid meet" height="1125" width="1000" xmlns="http://www.w3.org/2000/svg" xmlns:xlink="http://www.w3.org/1999/xlink"><g id="tight-bounds" transform="matrix(1,0,0,1,0,0)"><svg viewBox="0 0 320 360" height="360" width="320"><g><svg></svg></g><g><svg viewBox="0 0 320 360" height="360" width="320"><g><path xmlns="http://www.w3.org/2000/svg" d="M20.961 227.22l3.726 4.658-1.863-6.056c-0.466-2.795-3.726 0.466-1.863 1.398M25.153 224.425c1.397 2.329 2.795 4.658 2.795 6.987 0 3.261 2.795 4.658 5.123 5.589-3.261-3.726-5.124-13.974-7.918-12.576M204.017 26.929c7.918 0 15.371-0.932 23.756 0.931 20.495 5.124 37.729 15.371 49.374 29.811l32.606 52.169c1.397 13.042 4.192 27.482 3.726 43.319 3.261 0 2.795-4.658 6.521-5.59-3.726 9.316-5.59 20.961-6.521 34.469-2.329-7.453 0-18.632 0.466-24.687-3.261 5.124-5.124 1.397-5.124-0.932 0.466-3.726-1.397-3.261-2.795-4.658-5.124-4.658-8.384-9.782-12.11-17.7 2.329-6.055 2.795-14.905-4.658-19.563-2.329-1.397-5.124-3.726-6.521-7.453-1.863-5.124-5.124-11.179-4.193-19.097 0.466-2.329-6.987 5.124-11.179 1.863-18.166-12.576-36.332-27.016-58.224-39.127-11.645 0-20.029-4.192-24.221-9.316-3.726-4.658-0.932-10.713 4.658-11.179 3.261 0 6.987-0.932 9.782 0.932 0.466-1.863 2.329-4.192 4.657-4.192M157.904 16.215l0.932 0.466c4.658 0.932 6.987 7.453 12.11 5.124 0 3.261 0.466 6.521-0.466 8.85-1.397 3.726-5.59 3.726-8.85 3.726-31.208-1.863-49.374 11.179-68.471 22.358-5.124 3.261-10.713 5.59-14.906 9.782-20.029 18.632-41.921 35.866-47.045 70.335l-4.192 38.195c-0.466 4.192-5.124 8.384-4.192 13.508l3.26 22.824c-3.261-3.261-5.124 0.932-4.192 2.795 0.466 1.397 2.329 6.055 5.124 1.863 3.726 6.987 7.453 20.495 12.576 26.55 15.837 18.632 36.332 35.4 53.101 52.169 4.192-0.932 7.453-0.932 8.384-3.727 1.397 2.795-1.397 5.59-3.726 6.056 7.453 4.658 15.837 8.85 27.016 9.781 14.44 0.932 27.948 3.261 40.524 6.522 6.521-1.863 13.042-2.795 20.029-3.261 2.329 0 3.726-3.726 6.521-4.658l0.466-4.658c2.795 4.192 2.329-1.397 0.466-4.192 3.261 2.795 4.192 5.124 5.589 6.987 0-1.397 3.726-6.521 3.727-0.466l0.931-6.055c1.397-0.932 1.863 5.124 3.261 0.931 1.397-4.192 4.192-0.932 6.987-2.329-0.932 1.863-0.466 5.59 2.794 3.261l3.727-3.261c2.329 5.59 6.055 3.261 7.918 2.329 20.495-13.042 40.99-28.413 60.553-43.784l-0.466 6.055 2.329-7.453c2.329 2.329 4.192 0.466 5.124-0.931 2.795-4.658 6.521-9.316 12.577-13.508-7.453 20.029-16.303 35.866-27.482 48.908l-4.658 5.59c0 3.261-0.932 7.453-4.658 7.918-1.863 0.466-5.59-0.932-8.384 1.863-1.397 1.863 3.261 5.59-0.466 2.795-3.261-2.329-6.521 0-10.248 0.932-2.795 0.932 1.863 3.726 2.795 5.589 0.932 1.863 1.863 3.726 1.398 6.056l-5.124-5.59c-6.055 3.261-9.782 9.316-14.906 13.974-2.329 1.863-1.397 5.124-1.397 7.918-3.261 0-6.987-0.932-8.85 0.932-1.397 1.863-0.932 4.658-0.932 7.453-4.658-0.466-5.124-7.453-9.315-6.056-4.192 0.932-8.85 1.397-12.577 3.727 2.795 5.59-4.658 2.329-3.726 3.26-6.987-4.192-13.042-7.453-20.495-4.658-15.837-5.124-35.4-2.795-49.84-0.931 0-2.329 0.466-4.658-0.466-5.124-0.932 2.329-3.726 1.397-3.26 1.397-8.85-6.055-17.7-9.782-27.016-14.905-8.384 0.932-16.303-3.261-18.632-5.59-6.521-6.055-13.974-2.795-20.029-4.192-13.042-3.261-17.7-16.769-19.098-26.084-0.932-4.658-4.658-6.521-6.055-6.056-6.055-19.563-15.371-37.263-22.824-55.429-1.863-4.658-1.397-9.316-1.397-14.44 2.329 0.932 4.658 0.466 4.192-2.794-2.329-15.371-7.918-27.016-13.974-38.195 3.261-15.837 3.726-34.469 11.179-48.443 6.521-12.576 18.632-19.098 27.016-29.811 2.795-3.726 2.795-8.85 5.59-12.11 9.316-9.316 18.632-19.098 28.879-27.482 4.658-3.726 10.247 0 17.234-1.397 2.329-8.384 11.645-15.837 20.495-13.508 3.726 0.932 11.179-8.85 13.508-9.782 3.726-1.397 1.863 3.726 1.863 6.987 8.85-6.987 20.961-10.713 32.14-14.906" fill="#919daa" fill-rule="nonzero" stroke="none" stroke-width="1" stroke-linecap="butt" stroke-linejoin="miter" stroke-miterlimit="10" stroke-dasharray="" stroke-dashoffset="0" font-family="none" font-weight="none" font-size="none" text-anchor="none" style="mix-blend-mode: normal" data-fill-palette-color="tertiary"></path></g><g transform="matrix(1,0,0,1,64,125.47171225177969)"><svg viewBox="0 0 192 109.05657549644062" height="109.05657549644062" width="192"><g><svg viewBox="0 0 192 109.05657549644062" height="109.05657549644062" width="192"><g><svg viewBox="0 0 192 109.05657549644062" height="109.05657549644062" width="192"><g><svg viewBox="0 0 192 109.05657549644062" height="109.05657549644062" width="192"><g><svg viewBox="0 0 192 109.05657549644062" height="109.05657549644062" width="192"><g><svg viewBox="0 0 192 109.05657549644062" height="109.05657549644062" width="192"><g transform="matrix(1,0,0,1,0,0)"><svg width="192" viewBox="3.490000009536743 -37.0099983215332 65.16000366210938 37.0099983215332" height="109.05657549644062" data-palette-color="#ff4136"><path d="M3.49-32.79L3.49-37.01 18.9-37.01Q21.36-37.01 23.45-36.36 25.54-35.72 27.06-34.46 28.59-33.2 29.44-31.32 30.3-29.44 30.3-27L30.3-27Q30.3-25.61 29.8-24.26 29.3-22.9 28.41-21.74 27.51-20.58 26.29-19.68 25.07-18.77 23.63-18.29L23.63-18.29Q24.24-18.02 24.87-17.52 25.49-17.02 26.04-16.3 26.59-15.58 27.04-14.66 27.49-13.75 27.76-12.7L27.76-12.7 29.81-4.64 33.01-4.64 33.06 0 25.85 0 23.1-11.25Q22.34-14.28 20.79-15.71 19.24-17.14 16.55-17.14L16.55-17.14 11.79-17.14 11.79-4.2 15.5-4.2 15.5 0 3.49 0 3.49-4.2 7.01-4.2 7.01-32.79 3.49-32.79ZM18.31-32.79L11.79-32.79 11.79-21.14 18.9-21.14Q20.29-21.14 21.45-21.51 22.61-21.88 23.45-22.61 24.29-23.34 24.77-24.43 25.24-25.51 25.24-26.95L25.24-26.95Q25.24-29.71 23.58-31.25 21.92-32.79 18.31-32.79L18.31-32.79ZM39.08-32.79L39.08-37.01 54.49-37.01Q56.96-37.01 59.04-36.36 61.13-35.72 62.66-34.46 64.18-33.2 65.04-31.32 65.89-29.44 65.89-27L65.89-27Q65.89-25.61 65.39-24.26 64.89-22.9 64-21.74 63.11-20.58 61.89-19.68 60.67-18.77 59.23-18.29L59.23-18.29Q59.84-18.02 60.46-17.52 61.08-17.02 61.63-16.3 62.18-15.58 62.63-14.66 63.08-13.75 63.35-12.7L63.35-12.7 65.4-4.64 68.6-4.64 68.65 0 61.45 0 58.69-11.25Q57.93-14.28 56.38-15.71 54.83-17.14 52.15-17.14L52.15-17.14 47.39-17.14 47.39-4.2 51.1-4.2 51.1 0 39.08 0 39.08-4.2 42.6-4.2 42.6-32.79 39.08-32.79ZM53.9-32.79L47.39-32.79 47.39-21.14 54.49-21.14Q55.88-21.14 57.04-21.51 58.2-21.88 59.04-22.61 59.89-23.34 60.36-24.43 60.84-25.51 60.84-26.95L60.84-26.95Q60.84-29.71 59.18-31.25 57.52-32.79 53.9-32.79L53.9-32.79Z" opacity="1" transform="matrix(1,0,0,1,0,0)" fill="#ff4136" class="undefined-text-0" data-fill-palette-color="primary" id="text-0"></path></svg></g></svg></g></svg></g></svg></g><g></g></svg></g></svg></g></svg></g></svg></g><defs></defs></svg><rect width="320" height="360" fill="none" stroke="none" visibility="hidden"></rect></g></svg></g></svg>